#!OML:ASF F:\VICON\USERDATA\INSTALL\rory3\rory3.ASF
:FULLY-SPECIFIED
:DEGREES
390
root 8.84876 16.741 -11.137 13.0503 69.7268 -37.462
lowerback 51.3787 0.0695848 -11.3395
upperback 11.9998 -4.44051 -3.94722
thorax -6.61973 -1.50112 2.6215
lowerneck -28.7422 0.206622 -11.8798
upperneck 15.7684 3.53016 6.73719
head 9.27828 1.72374 4.84832
rclavicle -6.36111e-015 3.18055e-014
rhumerus -18.7118 14.1868 -88.4492
rradius 72.4311
rwrist -6.74856
rhand -15.9423 13.104
rfingers 7.12502
rthumb 10.2558 -16.6259
lclavicle -6.36111e-015 3.18055e-014
lhumerus 62.6845 20.7267 80.2693
lradius 20.9205
lwrist 10.0912
lhand -40.2596 38.415
lfingers 7.12502
lthumb -13.2181 67.9759
rfemur -60.2019 0.48341 28.5162
rtibia 48.5773
rfoot -23.9274 8.83278
rtoes -2.51082
lfemur -86.7729 5.61794 -8.88483
ltibia 50.0652
lfoot -6.44335 -6.07834
ltoes 1.14656
391
root 8.85481 16.7674 -11.1285 12.6054 69.9247 -37.7314
lowerback 51.1627 0.102629 -11.1534
upperback 12.0294 -4.27038 -3.81139
thorax -6.58198 -1.43567 2.62559
lowerneck -28.7142 0.186897 -11.862
upperneck 15.9072 3.48292 6.76799
head 9.32752 1.70123 4.85445
rclavicle -2.54444e-014 -3.02153e-014
rhumerus -18.6698 13.762 -88.2831
rradius 72.3901
rwrist -6.72259
rhand -15.7355 13.2054
rfingers 7.12502
rthumb 10.4553 -16.5146
lclavicle -2.54444e-014 -3.02153e-014
lhumerus 61.3072 20.0302 78.8438
lradius 21.662
lwrist 11.2674
lhand -40.2804 37.0974
lfingers 7.12502
lthumb -13.2381 66.657
rfemur -59.6723 0.513394 28.4563
rtibia 48.077
rfoot -23.8047 8.84064
rtoes -2.46365
lfemur -86.3147 5.46028 -8.70036
ltibia 49.6271
lfoot -6.28603 -6.21974
ltoes 2.01012
392
root 8.85877 16.7927 -11.1206 12.4031 70.1266 -37.7217
lowerback 50.9442 -0.0190736 -10.9308
upperback 12.0717 -4.27297 -3.84346
thorax -6.53573 -1.43516 2.50132
lowerneck -28.6398 0.233482 -11.7525
upperneck 15.9203 3.48325 6.81262
head 9.32078 1.71316 4.85203
rclavicle 5.40694e-014 2.14687e-014
rhumerus -18.6204 13.7727 -88.204
rradius 72.3943
rwrist -6.88213
rhand -16.0356 13.1572
rfingers 7.12502
rthumb 10.1658 -16.5772
lclavicle 5.40694e-014 2.14687e-014
lhumerus 59.856 19.3691 77.1758
lradius 22.6353
lwrist 12.5464
lhand -39.9403 36.8454
lfingers 7.12502
lthumb -12.9103 66.4261
rfemur -59.1569 0.569682 28.2669
rtibia 47.574
rfoot -23.7867 8.75157
rtoes -3.57294
lfemur -85.8414 5.26874 -8.63893
ltibia 49.1754
lfoot -6.10923 -6.31174
ltoes 3.15383
393
root 8.8624 16.8191 -11.1134 12.2088 70.3354 -37.6816
lowerback 50.8143 -0.218241 -10.6508
upperback 12.0454 -4.36723 -3.93706
thorax -6.58368 -1.46437 2.32118
lowerneck -28.7242 0.200269 -11.8063
upperneck 16.0328 3.4249 7.01373
head 9.37516 1.70493 4.93183
rclavicle 3.18055e-014 -7.15625e-015
rhumerus -18.6565 13.8855 -88.2423
rradius 72.412
rwrist -7.08904
rhand -16.2123 13.0787
rfingers 7.12502
rthumb 9.99536 -16.6639
lclavicle 3.18055e-014 -7.15625e-015
lhumerus 58.3679 18.8089 75.6368
lradius 23.687
lwrist 13.5436
lhand -39.4666 36.6778
lfingers 7.12502
lthumb -12.4536 66.2868
rfemur -58.6012 0.586321 28.0907
rtibia 47.0658
rfoot -23.7104 8.6001
rtoes -4.4677
lfemur -85.3666 5.09982 -8.7207
ltibia 48.6991
lfoot -6.03301 -6.44146
ltoes 2.34118
394
root 8.86436 16.8485 -11.1044 12.0368 70.5324 -37.5746
lowerback 50.6966 -0.32074 -10.4665
upperback 11.9944 -4.39559 -3.96398
thorax -6.64784 -1.46832 2.22773
lowerneck -28.8097 0.203979 -11.8545
upperneck 16.2312 3.41553 7.20305
head 9.45557 1.71523 5.01703
rclavicle 2.22639e-014 -2.38542e-015
rhumerus -18.7426 13.6837 -88.3207
rradius 72.3417
rwrist -7.1604
rhand -15.7203 13.2798
rfingers 7.12502
rthumb 10.47 -16.4395
lclavicle 2.22639e-014 -2.38542e-015
lhumerus 56.9504 18.1809 74.3717
lradius 24.7346
lwrist 14.2481
lhand -39.3643 37.0089
lfingers 7.12502
lthumb -12.3549 66.6238
rfemur -57.9786 0.647756 27.8409
rtibia 46.5436
rfoot -23.5534 8.50118
rtoes -3.96705
lfemur -84.8201 4.89668 -8.74095
ltibia 48.1891
lfoot -5.95022 -6.55484
ltoes 1.12037
395
root 8.86517 16.8812 -11.0987 12.1176 70.733 -37.1914
lowerback 50.547 -0.386699 -10.3847
upperback 11.9246 -4.42486 -3.93855
thorax -6.71226 -1.477 2.23664
lowerneck -28.7245 0.26 -11.8997
upperneck 16.4075 3.47488 7.2956
head 9.49498 1.74417 5.07111
rclavicle -2.54444e-014 -1.43125e-014
rhumerus -18.889 13.436 -88.3576
rradius 72.2827
rwrist -7.01696
rhand -15.268 13.5344
rfingers 7.12502
rthumb 10.9062 -16.1624
lclavicle -2.54444e-014 -1.43125e-014
lhumerus 55.2664 17.3922 72.8402
lradius 25.935
lwrist 15.3503
lhand -38.2243 35.7688
lfingers 7.12502
lthumb -11.2556 65.4468
rfemur -57.3797 0.580809 27.5869
rtibia 46.019
rfoot -23.5396 8.3312
rtoes -4.4228
lfemur -84.2572 4.66756 -8.87895
ltibia 47.6638
lfoot -5.833 -6.62326
ltoes 0.582718
